<svg width="1251" height="1251" viewBox="0 0 1251 1251" fill="none" xmlns="http://www.w3.org/2000/svg">
<rect width="1251" height="1251" rx="625.5" fill="white"/>
<g clip-path="url(#clip0_209_37)">
<path d="M289.318 698.594C269.643 698.242 228.792 721.296 226.078 675.579C223.938 639.543 264.763 651.142 289.122 646.027C305.822 642.518 334.709 635.733 335.492 628.1C339.315 590.499 365.592 549.517 329.216 514.603C309.971 496.128 287.282 481.02 269.525 461.345C263.302 454.456 264.163 437.364 267.829 427.096C269.421 422.634 286.239 423.364 296.207 422.321C298.529 422.073 301.282 423.965 303.526 425.361C325.928 439.412 354.645 470.099 369.336 464.398C404.929 450.62 434.898 421.029 464.88 395.169C471.221 389.703 470.843 372.298 468.26 361.677C465.207 349.113 454.077 338.558 450.907 325.993C448.728 317.369 452.903 306.214 457.13 297.616C458.057 295.724 473.322 297.433 478.45 301.713C494.785 315.334 507.545 334.135 525.367 344.781C539.589 353.249 560.386 357.737 575.912 354.071C583.792 352.205 588.763 328.785 590.968 314.473C593.786 296.168 590.472 276.832 593.917 258.722C595.443 250.711 607.525 238.747 614.062 239.204C621.773 239.739 632.406 250.62 635.107 259.127C639.843 274.092 641.095 290.688 641.004 306.592C640.795 344.612 657.561 363.895 695.854 372.324C730.938 380.035 756.302 380.726 773.707 342.798C783.466 321.518 800.349 302.9 816.697 285.612C822.138 279.859 838.238 277.758 845.114 281.646C851.494 285.26 857.17 301.269 854.299 308.08C842.948 334.944 826.757 359.733 815.184 386.519C809.652 399.318 803.65 419.646 809.691 428.218C826 451.311 841.67 430.097 856.139 420.416C878.306 405.607 899.586 389.429 922.314 375.612C927.676 372.337 942.002 373.511 944.025 377.164C948.382 385.045 951.879 398.797 947.821 404.942C936.248 422.49 921.557 438.277 906.501 453.138C891.523 467.947 862.493 479.559 860.953 494.732C857.274 530.925 865.037 568.592 871.365 605.111C872.187 609.834 892.175 614.727 902.652 613.618C934.37 610.278 965.67 602.045 997.401 600.062C1007.06 599.462 1024.72 611.922 1025.86 620.181C1027.17 629.718 1015.95 648.611 1007.28 650.568C971.293 658.683 934.226 665.572 897.538 665.663C874.94 665.729 858.292 668.899 858.226 691.184C858.2 701.426 873.452 715.595 885.038 721.179C907.192 731.812 950.783 724.832 941.741 761.247C931.943 800.754 892.88 778.73 865.872 774.881C840.991 771.332 819.672 770.341 800.806 792.612C781.457 815.471 778.13 832.706 804.85 851.442C822.281 863.667 840 876.714 853.503 892.814C860.17 900.76 863.015 920.827 857.678 927.546C851.755 934.996 831.193 939.406 822.869 934.722C797.596 920.527 773.524 903.096 752.14 883.486C734.526 867.333 719.509 860.079 695.476 869.695C667.594 880.863 672.187 901.36 674.17 922.732C676.375 946.425 679.819 970.262 678.854 993.878C678.567 1000.84 665.624 1011.96 657.692 1012.68C649.667 1013.42 636.881 1005.59 633.006 998.027C627.226 986.767 628.414 972.154 624.852 959.459C617.35 932.752 640.678 892.358 587.498 885.834C539.523 879.95 537.697 913.546 528.59 943.672C525.576 953.666 522.04 964.3 515.66 972.167C511.628 977.138 501.256 980.491 494.954 979.082C488.861 977.725 479.806 969.271 479.898 964.065C480.25 943.02 484.725 922.053 485.508 900.969C486.056 886.291 488.104 867.646 480.472 857.613C467.973 841.148 449.08 821.812 431.14 819.868C418.315 818.485 402.332 843.274 388.32 856.987C378.821 866.303 371.698 878.75 360.895 885.769C353.327 890.688 335.661 893.193 332.53 889.109C325.732 880.224 319.796 864.137 323.514 855.108C331.486 835.733 344.312 817.741 357.855 801.419C377.934 777.23 391.79 755.31 370.08 723.384C349.674 693.336 351.801 691.901 289.318 698.594ZM803.794 595.887C803.624 531.643 786.911 499.847 745.89 462.114C674.888 396.774 524.91 418.55 464.776 465.246C405.268 511.472 389.742 596.252 421.446 676.74C458.513 770.889 533.509 828.022 611.557 821.433C619.502 820.755 627.422 819.346 635.237 817.702C739.562 795.678 804.094 710.689 803.794 595.887Z" fill="black"/>
</g>
<defs>
<clipPath id="clip0_209_37">
<rect width="800" height="800" fill="white" transform="translate(226 226)"/>
</clipPath>
</defs>
</svg>
